<?xml version="1.0" encoding="UTF-8"?>
<svg width="114px" height="21px" viewBox="0 0 114 21" version="1.1" xmlns="http://www.w3.org/2000/svg" xmlns:xlink="http://www.w3.org/1999/xlink">
    <title>Swap</title>
    <g id="Site" stroke="none" stroke-width="1" fill="none" fill-rule="evenodd">
        <g id="Mobile_Home" transform="translate(-32.000000, -67.000000)">
            <g id="Logo" transform="translate(32.000000, 67.000000)">
                <path d="M48.0814916,1.12236364 C49.2816729,1.12236364 50.3193141,1.25102343 51.1937718,1.50812857 C52.0684439,1.76566258 52.7885098,2.04849967 53.3543985,2.35706873 L52.1968893,5.52081287 C51.6994048,5.26349329 51.1463821,5.03640877 50.5380358,4.83913043 C49.9290461,4.64228096 49.1961142,4.54342736 48.3388111,4.54342736 C47.3781514,4.54342736 46.6883205,4.6763758 46.2682463,4.94205826 C45.8479577,5.20816959 45.6380278,5.61537781 45.6380278,6.16389736 C45.6380278,6.48983549 45.7152237,6.7643097 45.8696154,6.98689113 C46.0240072,7.20990143 46.2425144,7.41146842 46.5253515,7.59116326 C46.808403,7.77128696 47.1339122,7.93468489 47.5029514,8.08007045 C47.8713472,8.22588487 48.2785555,8.37577352 48.7245761,8.53016526 C49.6507121,8.87347246 50.4563368,9.2118477 51.1423079,9.54614871 C51.8280645,9.88044972 52.3982418,10.2709322 52.8528397,10.7165239 C53.3070088,11.1627589 53.6458129,11.6853321 53.8688232,12.28553 C54.091619,12.8859423 54.2033386,13.6143711 54.2033386,14.4716742 C54.2033386,16.1352452 53.6200809,17.4257029 52.4542088,18.3428327 C51.2879079,19.2603914 49.5304152,19.7188491 47.1813019,19.7188491 C46.392403,19.7188491 45.6807,19.6714594 45.0464072,19.5775378 C44.4119,19.4831873 43.8505145,19.3671791 43.3618217,19.2301564 C42.873129,19.0931337 42.4526259,18.9473193 42.1013847,18.7929275 C41.7497146,18.6385358 41.4540115,18.4931502 41.214061,18.3556987 L42.3458383,15.166437 C42.8769888,15.4580659 43.5329393,15.7192452 44.3134753,15.9508329 C45.0935825,16.182206 46.0495247,16.2979999 47.1813019,16.2979999 C47.7471906,16.2979999 48.2142256,16.2508246 48.5832647,16.1564741 C48.9516606,16.062338 49.2475781,15.9338927 49.4705884,15.7707092 C49.6931698,15.6079545 49.8475616,15.4151793 49.9335492,15.1919546 C50.0191079,14.9693731 50.062209,14.7206309 50.062209,14.4459422 C50.062209,13.8633278 49.7875203,13.3787093 49.2390008,12.9929444 C48.6900524,12.606965 47.7471906,12.1916083 46.4097721,11.7453733 C45.8265144,11.5397321 45.2434711,11.3040703 44.6606423,11.0381734 C44.0773846,10.7722765 43.554597,10.4379755 43.0916362,10.0348415 C42.6286754,9.63213633 42.2512734,9.14344358 41.9598589,8.5687632 C41.6682301,7.99429726 41.5226301,7.29567462 41.5226301,6.47246642 C41.5226301,5.64947265 41.6770218,4.90796342 41.9858053,4.24772428 C42.29416,3.58769958 42.7316032,3.02567075 43.2974919,2.56270995 C43.8633805,2.09974915 44.5489227,1.74421928 45.3551907,1.49547702 C46.1610298,1.24716364 47.0695823,1.12236364 48.0814916,1.12236364 Z M105.053739,1.32834796 C107.711421,1.32834796 109.751965,1.79559742 111.175586,2.73009633 C112.598563,3.66480968 113.310481,5.19521783 113.310481,7.3213208 C113.310481,9.46500727 112.5902,11.0123556 111.149854,11.9640092 C109.709508,12.9156627 107.651809,13.3914895 104.976543,13.3914895 L103.71632,13.3914895 L103.71632,19.3589448 L99.7038506,19.3589448 L99.7038506,1.79130876 C100.578308,1.61997681 101.504444,1.49989434 102.48183,1.43106136 C103.459001,1.36287167 104.316304,1.32834796 105.053739,1.32834796 Z M90.0255468,1.5339463 C90.6111633,2.76865138 91.1882024,4.03337708 91.7568787,5.32769453 C92.325126,6.62265528 92.8983054,7.98987994 93.475559,9.43044068 C94.0525981,10.870787 94.6425032,12.4056982 95.2452743,14.0345311 C95.8482599,15.6637929 96.4857691,17.4386546 97.1575876,19.3589019 L92.8601363,19.3589019 C92.6615714,18.7394051 92.4486394,18.1033969 92.2204828,17.4506629 C91.9921116,16.7981433 91.7645982,16.1475537 91.5383715,15.5006094 L84.5768049,15.5006094 C84.3516502,16.1507702 84.1258523,16.802432 83.8998399,17.4558093 C83.6736132,18.109401 83.46304,18.7439082 83.2681204,19.3589019 L79.1012588,19.3589019 C79.7720051,17.4386546 80.4082278,15.6637929 81.0103556,14.0345311 C81.6122689,12.4056982 82.2011019,10.870787 82.7774977,9.43044068 C83.3536792,7.98987994 83.9210688,6.62265528 84.48031,5.32769453 C85.0393368,4.03337708 85.6200213,2.76865138 86.2219347,1.5339463 L90.0255468,1.5339463 Z M60.0931692,1.5339463 C60.2651444,2.54606995 60.4549176,3.59614824 60.6618455,4.68482446 C60.8685588,5.77392955 61.0838496,6.86710887 61.3081464,7.96414798 C61.5320145,9.06183039 61.7601712,10.1249891 61.9930454,11.1536241 C62.2257052,12.1824735 62.462868,13.1343415 62.7038907,14.0087992 C63.013103,13.1688652 63.3135236,12.2770384 63.6057958,11.3337478 C63.8976391,10.3911004 64.1813339,9.44759531 64.456237,8.50451908 C64.7311401,7.56144285 64.984171,6.65246146 65.2161875,5.77800378 C65.4479895,4.9035461 65.6585627,4.12343893 65.8474781,3.43746784 L69.268113,3.43746784 C69.4735398,4.14059357 69.7001954,4.93378115 69.9485088,5.81660172 C70.1968222,6.70006558 70.4620758,7.6131212 70.7446985,8.55576856 C71.0266778,9.49927366 71.3138036,10.4423499 71.6045747,11.3852117 C71.8955603,12.3285024 72.1781829,13.20296 72.4522283,14.0087992 C72.6760963,13.1343415 72.9044674,12.1824735 73.1371272,11.1536241 C73.3693581,10.1249891 73.5891519,9.06183039 73.7958653,7.96414798 C74.0023642,6.86710887 74.2050034,5.77392955 74.4031395,4.68482446 C74.6012756,3.59614824 74.7863312,2.54606995 74.9589498,1.5339463 L79.1268835,1.5339463 C78.5232547,4.51778117 77.8287063,7.54428821 77.0438816,10.6136818 C76.2590569,13.6832899 75.4094734,16.5982918 74.4953457,19.3589019 L70.8253253,19.3589019 C70.2261995,17.7127 69.6442284,15.9854423 69.0796264,14.1760569 C68.5145955,12.3671003 67.9583564,10.553855 67.410909,8.73589226 C66.8615317,10.553855 66.3121544,12.3671003 65.7627771,14.1760569 C65.2133998,15.9854423 64.6382906,17.7127 64.0374494,19.3589019 L60.3700022,19.3589019 C59.4569466,16.5982918 58.6090786,13.6832899 57.8257549,10.6136818 C57.0420024,7.54428821 56.3491694,4.51778117 55.7461839,1.5339463 L60.0931692,1.5339463 Z M88.0394686,5.57236255 C87.9498356,5.83096872 87.818817,6.18349654 87.6464129,6.62887383 C87.4740088,7.07446556 87.2778026,7.58931914 87.05758,8.17343456 C86.8373573,8.75733556 86.5909738,9.40042006 86.3190728,10.1024736 C86.0469573,10.8043128 85.7703388,11.5406756 85.4894316,12.3111333 L90.5865035,12.3111333 C90.3137447,11.5383168 90.0497777,10.7998097 89.7941736,10.0956118 C89.5385695,9.39162831 89.2954025,8.74725721 89.0655304,8.16271292 C88.8352293,7.57881192 88.6334479,7.06438721 88.4597572,6.61922435 C88.2860665,6.17427592 88.1460418,5.8256079 88.0394686,5.57236255 Z M105.311058,4.74919724 C105.019215,4.74919724 104.732304,4.75798899 104.449252,4.7749292 C104.166415,4.79208384 103.921962,4.80945291 103.71632,4.82617868 L103.71632,9.97064023 L104.976543,9.97064023 C106.36564,9.97064023 107.411215,9.78215364 108.114555,9.4047516 C108.817681,9.02777843 109.169137,8.32443827 109.169137,7.29558884 C109.169137,6.7985332 109.079289,6.38703632 108.899165,6.06088376 C108.719042,5.73558894 108.461937,5.47376627 108.127636,5.27648793 C107.79312,5.07942403 107.385483,4.94197249 106.905797,4.86499105 C106.425467,4.78779518 105.893887,4.74919724 105.311058,4.74919724 Z" id="SWAP" fill="#000000"></path>
                <path d="M12.5653436,0.267140603 C12.9129394,0.12218391 13.3122136,0.286010705 13.4575992,0.633820993 L14.3487826,2.76785798 C14.4933105,3.11416724 14.3311991,3.51194041 13.9859621,3.65861257 L11.8695086,4.55665787 C11.7826632,4.59354034 11.6921725,4.61112385 11.6033972,4.61112385 C11.3379292,4.61112385 11.0855416,4.45523107 10.9751086,4.19533831 C10.8280076,3.84860018 10.9899045,3.44803938 11.3366426,3.30093836 L12.0685024,2.99043941 C11.1858962,2.66149922 10.2462509,2.49038171 9.29373965,2.49038171 C7.17557071,2.49038171 5.18434608,3.31509094 3.68674617,4.81290528 C2.18893183,6.31050519 1.3642226,8.30172981 1.3642226,10.4196843 C1.3642226,12.5378533 2.18893183,14.5290779 3.68674617,16.0268922 C5.18434608,17.5244922 7.17557071,18.3492014 9.29373965,18.3492014 C11.4116942,18.3492014 13.4029188,17.5244922 14.9005187,16.0268922 C16.398333,14.5290779 17.2230423,12.5378533 17.2230423,10.4196843 C17.2230423,10.4177544 17.2232567,10.416039 17.2234711,10.4138946 C17.2232567,10.4119647 17.2230423,10.4100348 17.2230423,10.4078905 C17.2230423,7.92561437 18.1897061,5.59194029 19.9450545,3.8363775 C21.7004028,2.08102915 24.0342914,1.11457973 26.5167819,1.11457973 C28.9990581,1.11457973 31.3329466,2.08102915 33.0882949,3.8363775 C34.8436433,5.59194029 35.8103071,7.92561437 35.8103071,10.4078905 C35.8103071,12.8905955 34.8436433,15.2242696 33.0882949,16.979618 C31.3329466,18.7349663 28.9990581,19.7016302 26.5167819,19.7016302 C25.4497634,19.7016302 24.3958254,19.5185044 23.4012852,19.1651189 L23.6114295,19.6681786 C23.7563862,20.0159889 23.5921306,20.4152631 23.2445347,20.5604342 C23.1587615,20.5962445 23.0695574,20.6131848 22.9820687,20.6131848 C22.7150997,20.6131848 22.4616399,20.4555765 22.3524935,20.1937538 L21.4615245,18.0595024 C21.3169967,17.7134076 21.4793224,17.3152056 21.824774,17.1689623 L23.9412274,16.2711314 C24.2879656,16.1240304 24.6883119,16.2861417 24.835413,16.6328798 C24.982514,16.979618 24.8206171,17.3799643 24.473879,17.5272798 L23.7420192,17.8375643 C24.6244109,18.1665045 25.5642706,18.3374076 26.5167819,18.3374076 C28.6347364,18.3374076 30.6259611,17.5126983 32.123561,16.0150984 C33.6211609,14.5174985 34.4460845,12.5260595 34.4460845,10.4078905 C34.4460845,8.29015043 33.6211609,6.29871138 32.123561,4.80111147 C30.6259611,3.30351156 28.6347364,2.47858789 26.5167819,2.47858789 C24.398613,2.47858789 22.4073884,3.30351156 20.9097884,4.80111147 C19.4119741,6.29871138 18.5872649,8.29015043 18.5872649,10.4078905 C18.5872649,10.4100348 18.5870504,10.4119647 18.5870504,10.4138946 L18.5871577,10.4168699 C18.5872649,12.9021749 17.620601,15.2360634 15.8652527,16.9914118 C14.1099043,18.7467601 11.7760158,19.713424 9.29373965,19.713424 C6.81124908,19.713424 4.47736056,18.7467601 2.72201221,16.9914118 C0.96666386,15.2360634 0,12.9021749 0,10.4196843 C0,7.93740819 0.96666386,5.60351967 2.72201221,3.84817132 C4.47736056,2.09282297 6.81124908,1.12615911 9.29373965,1.12615911 C10.3605437,1.12615911 11.4142674,1.3094993 12.4088075,1.66245598 L12.1986632,1.15961065 C12.0534921,0.812014797 12.2175333,0.412526161 12.5653436,0.267140603 Z M5.91987264,11.8638904 C6.61420662,13.0679316 7.9080952,13.8158738 9.29611986,13.8158738 C10.6807136,13.8158738 11.9728867,13.0707192 12.6680784,11.87161 C12.8597815,11.5407399 13.2832866,11.4277338 13.6141567,11.6198657 C13.9450268,11.8113543 14.0576041,12.2350739 13.865901,12.5657296 C12.923897,14.1909171 11.1728373,15.2004675 9.29611986,15.2004675 C7.41468492,15.2004675 5.66126647,14.1870573 4.720549,12.5554368 C4.52948921,12.2241378 4.64313869,11.8008471 4.97443764,11.6097873 C5.30552216,11.418942 5.72902729,11.5325915 5.91987264,11.8638904 Z M23.1431079,11.8638904 C23.8372274,13.0679316 25.131116,13.8158738 26.5193551,13.8158738 C27.9037344,13.8158738 29.1959075,13.0707192 29.8910992,11.87161 C30.0828023,11.5407399 30.5063075,11.4277338 30.8371775,11.6198657 C31.1680476,11.8113543 31.2806249,12.2350739 31.0889219,12.5657296 C30.1469178,14.1909171 28.3958581,15.2004675 26.5193551,15.2004675 C24.6377057,15.2004675 22.8845017,14.1870573 21.9435698,12.5554368 C21.75251,12.2241378 21.866374,11.8008471 22.1974585,11.6097873 C22.528543,11.418942 22.9520481,11.5325915 23.1431079,11.8638904 Z M12.4246541,7.38848121 C12.8014128,7.38848121 13.1067654,7.69383377 13.1067654,8.07059251 C13.1067654,8.44735125 12.8014128,8.75270381 12.4246541,8.75270381 C12.0481098,8.75270381 11.7425428,8.44735125 11.7425428,8.07059251 C11.7425428,7.69383377 12.0481098,7.38848121 12.4246541,7.38848121 Z M29.6477607,7.38848121 C30.0245194,7.38848121 30.329872,7.69383377 30.329872,8.07059251 C30.329872,8.44735125 30.0245194,8.75270381 29.6477607,8.75270381 C29.271002,8.75270381 28.9656494,8.44735125 28.9656494,8.07059251 C28.9656494,7.69383377 29.271002,7.38848121 29.6477607,7.38848121 Z M6.16254644,7.37130513 C6.53930518,7.37130513 6.84465774,7.67687212 6.84465774,8.05363086 C6.84465774,8.43017517 6.53930518,8.73574216 6.16254644,8.73574216 C5.78600213,8.73574216 5.48043514,8.43017517 5.48043514,8.05363086 C5.48043514,7.67687212 5.78600213,7.37130513 6.16254644,7.37130513 Z M23.3855458,7.37130513 C23.7623046,7.37130513 24.0676571,7.67687212 24.0676571,8.05363086 C24.0676571,8.43017517 23.7623046,8.73574216 23.3855458,8.73574216 C23.0090015,8.73574216 22.7034345,8.43017517 22.7034345,8.05363086 C22.7034345,7.67687212 23.0090015,7.37130513 23.3855458,7.37130513 Z" id="ICON" fill="#00DE96"></path>
            </g>
        </g>
    </g>
</svg>